<svg width="332" height="52" viewBox="0 0 332 52" fill="none" xmlns="http://www.w3.org/2000/svg">
<path d="M0.421875 40.5V36.0566L4.35742 35.2949V8.76172L0.421875 8V3.53125H4.35742H11.7715H16.2402V8L11.7715 8.76172V34.8125H22.207L22.5625 29.4043H28.2246V40.5H0.421875ZM40.2598 41.0332C37.5345 41.0332 35.3678 40.3053 33.7598 38.8496C32.1517 37.377 31.3477 35.3796 31.3477 32.8574C31.3477 31.1309 31.8132 29.6159 32.7441 28.3125C33.6921 27.0091 35.0801 25.985 36.9082 25.2402C38.7533 24.4954 41.0215 24.123 43.7129 24.123H47.3438V22.0918C47.3438 20.7715 46.9544 19.7051 46.1758 18.8926C45.4141 18.0632 44.263 17.6484 42.7227 17.6484C41.9271 17.6484 41.2161 17.75 40.5898 17.9531C39.9635 18.1393 39.388 18.4102 38.8633 18.7656L38.2793 22.3965H32.9473L32.8457 15.2617C34.2845 14.4492 35.8418 13.7891 37.5176 13.2812C39.1934 12.7734 41.0638 12.5195 43.1289 12.5195C46.7174 12.5195 49.5527 13.3574 51.6348 15.0332C53.7168 16.6921 54.7578 19.0703 54.7578 22.168V33.4922C54.7578 33.8646 54.7578 34.237 54.7578 34.6094C54.7747 34.9648 54.8086 35.3118 54.8594 35.6504L57.7285 36.0566V40.5H48.5371C48.3509 40.026 48.1647 39.5182 47.9785 38.9766C47.7923 38.4349 47.6569 37.8932 47.5723 37.3516C46.6921 38.4688 45.651 39.3659 44.4492 40.043C43.2643 40.7031 41.8678 41.0332 40.2598 41.0332ZM42.2402 35.5488C43.2728 35.5488 44.2546 35.3203 45.1855 34.8633C46.1165 34.3893 46.8359 33.7715 47.3438 33.0098V28.668H43.6875C42.0625 28.668 40.8268 29.0404 39.9805 29.7852C39.151 30.5299 38.7363 31.4271 38.7363 32.4766C38.7363 33.4583 39.041 34.2201 39.6504 34.7617C40.2767 35.2865 41.14 35.5488 42.2402 35.5488ZM68.3418 40.5L61.9434 18.1055L58.5918 17.4961V13.0273H71.8711V17.4707L68.9766 18.0293L71.5156 28.7188L72.0234 30.8262H72.1758L72.8613 28.7188L78.498 13.0273H83.4746L88.9336 28.9219L89.6445 31.1562H89.7969L90.457 28.9219L93.4531 18.0547L90.2539 17.4707V13.0273H103.254V17.4961L100.055 18.1055L93.0723 40.5H86.8262L81.7988 26.8906L80.9102 23.8691H80.7578L79.8691 26.916L74.918 40.5H68.3418ZM113.232 51.5957C112.589 51.5957 111.904 51.5365 111.176 51.418C110.465 51.3164 109.788 51.1725 109.145 50.9863L109.982 45.5527C110.304 45.6204 110.66 45.6712 111.049 45.7051C111.438 45.7389 111.777 45.7559 112.064 45.7559C113.131 45.7559 114.053 45.4766 114.832 44.918C115.611 44.3594 116.178 43.5553 116.533 42.5059L117.143 40.8047L107.951 17.9785L104.574 17.4961V13.0273H119.148V17.4961L115.797 18.0039L120.113 30.1152L120.646 31.6133H120.799L125.902 17.9531L122.627 17.4961V13.0273H136.211V17.4961L133.113 17.9277L122.627 44.5879C122.119 45.8574 121.467 47.0169 120.672 48.0664C119.893 49.1328 118.895 49.9876 117.676 50.6309C116.474 51.2741 114.993 51.5957 113.232 51.5957ZM150.861 41.0332C148.238 41.0332 145.944 40.4577 143.98 39.3066C142.017 38.1387 140.493 36.5391 139.41 34.5078C138.344 32.4766 137.811 30.1576 137.811 27.5508V26.5352C137.811 23.8099 138.318 21.3978 139.334 19.2988C140.35 17.1829 141.78 15.5241 143.625 14.3223C145.487 13.1035 147.679 12.5026 150.201 12.5195C152.689 12.5195 154.78 13.0104 156.473 13.9922C158.165 14.974 159.452 16.3874 160.332 18.2324C161.212 20.0775 161.652 22.3118 161.652 24.9355V28.9727H145.504L145.453 29.125C145.555 30.3268 145.851 31.4017 146.342 32.3496C146.85 33.2806 147.561 34.0169 148.475 34.5586C149.389 35.0833 150.497 35.3457 151.801 35.3457C153.155 35.3457 154.416 35.1764 155.584 34.8379C156.769 34.4824 157.92 33.9661 159.037 33.2891L161.043 37.8594C159.909 38.7734 158.479 39.5352 156.752 40.1445C155.042 40.737 153.079 41.0332 150.861 41.0332ZM145.555 24.0723H154.721V23.4121C154.721 22.2949 154.568 21.3385 154.264 20.543C153.976 19.7305 153.502 19.1042 152.842 18.6641C152.199 18.224 151.361 18.0039 150.328 18.0039C149.346 18.0039 148.517 18.2663 147.84 18.791C147.163 19.2988 146.63 20.0013 146.24 20.8984C145.868 21.7956 145.614 22.8112 145.479 23.9453L145.555 24.0723ZM165.639 40.5V36.0566L169.193 35.2949V18.2578L165.258 17.4961V13.0273H176.1L176.379 16.4297L176.43 17.0391C177.107 15.5495 177.945 14.4238 178.943 13.6621C179.942 12.9004 181.135 12.5195 182.523 12.5195C182.964 12.5195 183.446 12.5618 183.971 12.6465C184.495 12.7142 184.961 12.8073 185.367 12.9258L184.58 19.7559L180.898 19.5527C179.849 19.502 178.994 19.6797 178.334 20.0859C177.691 20.4922 177.115 21.0762 176.607 21.8379V35.2949L180.162 36.0566V40.5H165.639ZM199.357 41.0332C197.309 41.0332 195.396 40.8385 193.619 40.4492C191.859 40.0599 190.166 39.5013 188.541 38.7734L188.465 31.0039H193.619L194.609 34.9648C195.185 35.2526 195.811 35.4811 196.488 35.6504C197.182 35.8197 197.969 35.9043 198.85 35.9043C200.508 35.9043 201.676 35.6335 202.354 35.0918C203.031 34.5501 203.369 33.873 203.369 33.0605C203.369 32.2988 203.005 31.6302 202.277 31.0547C201.566 30.4622 200.136 29.946 197.986 29.5059C194.736 28.8288 192.341 27.7793 190.801 26.3574C189.26 24.9355 188.49 23.1159 188.49 20.8984C188.49 19.375 188.871 17.987 189.633 16.7344C190.411 15.4818 191.588 14.4746 193.162 13.7129C194.753 12.9512 196.785 12.5703 199.256 12.5703C201.321 12.5703 203.208 12.7734 204.918 13.1797C206.645 13.569 208.092 14.0853 209.26 14.7285L209.336 22.2441H204.207L203.42 18.6387C202.963 18.3001 202.421 18.0462 201.795 17.877C201.186 17.7077 200.492 17.623 199.713 17.623C198.41 17.623 197.411 17.8854 196.717 18.4102C196.023 18.9349 195.676 19.612 195.676 20.4414C195.676 20.9154 195.794 21.3555 196.031 21.7617C196.285 22.168 196.776 22.5488 197.504 22.9043C198.232 23.2598 199.29 23.5983 200.678 23.9199C204.08 24.6986 206.56 25.7396 208.117 27.043C209.674 28.3294 210.453 30.1406 210.453 32.4766C210.453 35.0326 209.522 37.0977 207.66 38.6719C205.815 40.2461 203.048 41.0332 199.357 41.0332ZM213.652 40.5V36.0566L217.588 35.2949V8.76172L213.652 8V3.53125H243.08V13.6621H237.393L237.062 9.24414H225.002V19.4258H237.951V25.1387H225.002V35.2949L228.963 36.0566V40.5H213.652ZM245.746 40.5V36.0566L249.326 35.2949V18.2578L245.365 17.4961V13.0273H256.74V35.2949L260.295 36.0566V40.5H245.746ZM249.072 7.21289V0.890625H256.74V7.21289H249.072ZM263.342 40.5V36.0566L266.896 35.2949V18.2578L262.961 17.4961V13.0273H273.803L274.082 16.4297L274.133 17.0391C274.81 15.5495 275.648 14.4238 276.646 13.6621C277.645 12.9004 278.839 12.5195 280.227 12.5195C280.667 12.5195 281.149 12.5618 281.674 12.6465C282.199 12.7142 282.664 12.8073 283.07 12.9258L282.283 19.7559L278.602 19.5527C277.552 19.502 276.697 19.6797 276.037 20.0859C275.394 20.4922 274.818 21.0762 274.311 21.8379V35.2949L277.865 36.0566V40.5H263.342ZM285.203 40.5V36.0566L288.783 35.2949V18.2578L284.822 17.4961V13.0273H295.664L295.969 16.6582C296.849 15.3379 297.949 14.3223 299.27 13.6113C300.607 12.8835 302.147 12.5195 303.891 12.5195C305.651 12.5195 307.158 12.9089 308.41 13.6875C309.68 14.4661 310.628 15.6426 311.254 17.2168C312.1 15.7441 313.201 14.5931 314.555 13.7637C315.909 12.9342 317.5 12.5195 319.328 12.5195C322.036 12.5195 324.169 13.4421 325.727 15.2871C327.301 17.1322 328.088 19.9421 328.088 23.7168V35.2949L331.668 36.0566V40.5H317.475V36.0566L320.674 35.2949V23.6914C320.674 21.6602 320.335 20.2552 319.658 19.4766C318.998 18.681 318.033 18.2832 316.764 18.2832C315.613 18.2832 314.639 18.6133 313.844 19.2734C313.048 19.9167 312.473 20.7715 312.117 21.8379V35.2949L315.113 36.0566V40.5H301.732V36.0566L304.729 35.2949V23.6914C304.729 21.7109 304.39 20.3145 303.713 19.502C303.053 18.6895 302.071 18.2832 300.768 18.2832C299.718 18.2832 298.812 18.4948 298.051 18.918C297.289 19.3411 296.663 19.9505 296.172 20.7461V35.2949L299.371 36.0566V40.5H285.203Z" fill="white"/>
</svg>
