<svg width="75" height="46" viewBox="0 0 75 46" fill="none" xmlns="http://www.w3.org/2000/svg">
<path d="M18.75 15.6944C21.25 5.6944 27.5 0.694397 37.5 0.694397C52.5 0.694397 54.375 11.9444 61.875 13.8194C66.875 15.0694 71.25 13.1944 75 8.1944C72.5 18.1944 66.25 23.1944 56.25 23.1944C41.25 23.1944 39.375 11.9444 31.875 10.0694C26.875 8.8194 22.5 10.6944 18.75 15.6944ZM0 38.1944C2.5 28.1944 8.75 23.1944 18.75 23.1944C33.75 23.1944 35.625 34.4444 43.125 36.3194C48.125 37.5694 52.5 35.6944 56.25 30.6944C53.75 40.6944 47.5 45.6944 37.5 45.6944C22.5 45.6944 20.625 34.4444 13.125 32.5694C8.125 31.3194 3.75 33.1944 0 38.1944Z" fill="#BE7C4D"/>
</svg>
